<?xml version="1.0" encoding="UTF-8" standalone="no"?>
<!DOCTYPE svg PUBLIC "-//W3C//DTD SVG 1.1//EN" "http://www.w3.org/Graphics/SVG/1.1/DTD/svg11.dtd">
<svg width="32px" height="32px" version="1.1" xmlns="http://www.w3.org/2000/svg" xmlns:xlink="http://www.w3.org/1999/xlink" xml:space="preserve" xmlns:serif="http://www.serif.com/" style="fill-rule:evenodd;clip-rule:evenodd;stroke-linejoin:round;stroke-miterlimit:2;">
    <path d="M16,20C22.623,20 28,9.377 28,16C28,22.623 22.623,28 16,28C9.377,28 4,22.623 4,16C4,9.377 9.377,20 16,20Z" style="fill:rgb(255,217,18);"/>
    <path d="M16,16.016C14.127,16.016 12.53,14.506 11.159,13.373C9.427,11.941 7.922,10.713 6.902,10.279C4.959,9.45 3.374,9.825 2.147,10.722C1.277,11.358 0.016,12.802 0.016,16C0.016,24.822 7.178,31.984 16,31.984C24.822,31.984 31.984,24.822 31.984,16C31.984,12.802 30.723,11.358 29.853,10.722C28.626,9.825 27.041,9.45 25.098,10.279C24.078,10.713 22.573,11.941 20.841,13.373C19.47,14.506 17.873,16.016 16,16.016ZM16,20C22.623,20 28,9.377 28,16C28,22.623 22.623,28 16,28C9.377,28 4,22.623 4,16C4,9.377 9.377,20 16,20Z"/>
    <path d="M4.224,14.316C5.304,19.832 10.169,24 16,24C21.831,24 26.696,19.832 27.776,14.316C27.923,14.662 28,15.208 28,16C28,22.623 22.623,28 16,28C9.377,28 4,22.623 4,16C4,15.208 4.077,14.662 4.224,14.316Z" style="fill:rgb(225,166,58);"/>
</svg>
