<?xml version="1.0" encoding="UTF-8" standalone="no"?>
<!DOCTYPE svg PUBLIC "-//W3C//DTD SVG 1.1//EN" "http://www.w3.org/Graphics/SVG/1.1/DTD/svg11.dtd">
<svg width="96px" height="96px" version="1.1" xmlns="http://www.w3.org/2000/svg" xmlns:xlink="http://www.w3.org/1999/xlink" xml:space="preserve" xmlns:serif="http://www.serif.com/" style="fill-rule:evenodd;clip-rule:evenodd;stroke-linejoin:round;stroke-miterlimit:2;">
    <path id="outline" d="M72.98,49.57C74.904,51.488 76,54.309 76,57.4L76,58.343C73.67,59.167 72,61.39 72,64C72,64 72,72 72,72C72,75.311 74.689,78 78,78L86,78C91.519,78 96,73.519 96,68L96,51.841C96,34.846 82.656,20.942 65.883,20.047C65.961,19.544 66,19.027 66,18.5C66,16.475 65.425,14.583 64.431,12.978C61.72,4.583 55.833,0 48,0C40.146,0 34.263,4.553 31.557,13C30.571,14.597 30,16.482 30,18.5C30,19.009 30.037,19.51 30.109,20L29.4,20C23.736,20 20,15.264 20,9.6L20,8.657C22.33,7.833 24,5.61 24,3L24,-5C24,-8.311 21.311,-11 18,-11C18,-11 10,-11 10,-11C4.481,-11 0,-6.519 0,-1L0,15.159C0,29.664 9.722,41.916 23,45.753C23,45.753 23,49 23,49C23,53.967 27.033,58 32,58L64,58C68.776,58 72.688,54.272 72.98,49.57ZM17.215,4.839C16.767,5.582 16.382,6.285 16.171,6.677L16,7L16,9.6C16,17.548 21.452,24 29.4,24L34,24C34.001,22.629 34.066,21.319 34.191,20.071C34.066,19.568 34,19.042 34,18.5C34,17.092 34.449,15.788 35.211,14.723C37.247,7.865 41.755,4 48,4C54.23,4 58.74,7.894 60.782,14.713C61.549,15.78 62,17.088 62,18.5C62,19.039 61.934,19.564 61.81,20.065C61.937,21.315 62.001,22.628 62,24L64.159,24C79.525,24 92,36.475 92,51.841L92,68C92,71.311 89.311,74 86,74L78,74C76.896,74 76,73.104 76,72L76,64C76,62.896 76.896,62 78,62C79.095,62 79.986,62.882 80,63.974L80,64L80,57.4C80,50.281 75.625,44.361 69,43.205L69,49C69,51.76 66.76,54 64,54L32,54C29.24,54 27,51.76 27,49L27,42.58C13.937,40.284 4,28.873 4,15.159L4,-1C4,-4.311 6.689,-7 10,-7L18,-7C19.104,-7 20,-6.104 20,-5L20,3C20,4.104 19.104,5 18,5C17.721,5 17.456,4.943 17.215,4.839Z"/>
    <path id="outline1" serif:id="outline" d="M16.917,83L14.25,83C10.801,83 8,85.801 8,89.25L8,96C8,98.209 9.791,100 12,100L36,100C38.209,100 40,98.209 40,96L40,89.25C40,87.441 39.23,85.812 38,84.67C38,84.671 38,81.632 38,81.632C38,81.632 46.654,73 46.654,73C46.654,73 49.346,73 49.346,73C49.346,73 58,81.632 58,81.632C58,81.632 58,84.671 58,84.671C56.77,85.812 56,87.441 56,89.25L56,96C56,98.209 57.791,100 60,100L84,100C86.209,100 88,98.209 88,96L88,89.25C88,85.801 85.199,83 81.75,83L79.083,83C79.673,81.618 80,80.097 80,78.5C80,74.331 77.962,71.879 74.46,68.804C74.466,68.809 67,61.343 67,61.343C67,61.343 67,54 67,54C67,51.791 65.209,50 63,50L33,50C30.791,50 29,51.791 29,54L29,61.343C29,61.343 21.534,68.809 21.534,68.809C18.036,71.881 16,74.333 16,78.5C16,80.097 16.327,81.618 16.917,83ZM63,54L63,63L71.731,71.731C74.255,73.939 76,75.517 76,78.5C76,79.991 75.564,81.38 74.813,82.548L72,87L81.75,87C82.992,87 84,88.008 84,89.25L84,96L60,96L60,89.25C60,88.093 60.876,87.138 62,87.014L62,79.972L51,69L45,69L34,79.972L34,87.014C35.124,87.138 36,88.093 36,89.25L36,96L12,96L12,89.25C12,88.008 13.008,87 14.25,87L24,87L21.187,82.548C20.436,81.38 20,79.991 20,78.5C20,75.517 21.745,73.939 24.269,71.731L33,63L33,54L63,54Z"/>
    <g id="arm">
        <path d="M16,3.026C16.014,4.118 16.905,5 18,5C19.104,5 20,4.104 20,3L20,-5C20,-6.104 19.104,-7 18,-7L10,-7C6.689,-7 4,-4.311 4,-1L4,3L16,3L16,3.026Z" style="fill:rgb(205,205,205);"/>
        <path d="M48,43L48,24L29.4,24C21.452,24 16,17.548 16,9.6L16,2C16,1.448 15.552,1 15,1C14.448,1 14,1.448 14,2L14,3L4,3L4,15.159C4,30.525 16.475,43 31.841,43L48,43Z" style="fill:rgb(118,118,118);"/>
    </g>
    <g id="arm1" serif:id="arm">
        <path d="M80,63.974C79.986,62.882 79.095,62 78,62C76.896,62 76,62.896 76,64L76,72C76,73.104 76.896,74 78,74L86,74C89.311,74 92,71.311 92,68L92,64L80,64L80,63.974Z" style="fill:rgb(205,205,205);"/>
        <path d="M48,24L48,43L66.6,43C74.548,43 80,49.452 80,57.4L80,65C80,65.552 80.448,66 81,66C81.552,66 82,65.552 82,65L82,64L92,64L92,51.841C92,36.475 79.525,24 64.159,24L48,24Z" style="fill:rgb(118,118,118);"/>
    </g>
    <g id="leg">
        <path d="M24.269,71.731L33,63L45,69L34,79.972L34,88L24,87L21.187,82.548L21.187,82.548C20.436,81.38 20,79.991 20,78.5C20,75.517 21.745,73.939 24.269,71.731Z" style="fill:rgb(118,118,118);"/>
        <path d="M36,96L36,89.25C36,88.008 34.992,87 33.75,87L14.25,87C13.008,87 12,88.008 12,89.25L12,96L36,96Z" style="fill:rgb(205,205,205);"/>
    </g>
    <g id="leg1" serif:id="leg">
        <path d="M71.731,71.731L63,63L51,69L62,79.972L62,88L72,87L74.813,82.548L74.813,82.548C75.564,81.38 76,79.991 76,78.5C76,75.517 74.255,73.939 71.731,71.731Z" style="fill:rgb(118,118,118);"/>
        <path d="M60,96L60,89.25C60,88.008 61.008,87 62.25,87L81.75,87C82.992,87 84,88.008 84,89.25L84,96L60,96Z" style="fill:rgb(205,205,205);"/>
    </g>
    <g id="belly">
        <path d="M63,53.25C63,50.352 60.648,48 57.75,48L38.25,48C35.352,48 33,50.352 33,53.25L33,63.75C33,66.648 35.352,69 38.25,69L57.75,69C60.648,69 63,66.648 63,63.75L63,53.25Z" style="fill:rgb(205,205,205);"/>
        <path d="M50,64C50,63.448 49.552,63 49,63L47,63C46.448,63 46,63.448 46,64C46,64.552 46.448,65 47,65L49,65C49.552,65 50,64.552 50,64Z" style="fill:rgb(118,118,118);"/>
    </g>
    <g id="chest">
        <path d="M33,31L33,56L42,56C45.863,56 49,52.863 49,49C49,49 49,38 49,38C49,34.137 45.863,31 42,31L33,31Z" style="fill:rgb(118,118,118);"/>
        <path d="M47,38C47,35.24 44.76,33 42,33L32,33C29.24,33 27,35.24 27,38L27,49C27,51.76 29.24,54 32,54L42,54C44.76,54 47,51.76 47,49L47,38Z" style="fill:rgb(205,205,205);"/>
        <circle cx="32" cy="49" r="1" style="fill:rgb(118,118,118);"/>
    </g>
    <g id="chest1" serif:id="chest">
        <path d="M63,31L63,56L54,56C50.137,56 47,52.863 47,49C47,49 47,38 47,38C47,34.137 50.137,31 54,31L63,31Z" style="fill:rgb(118,118,118);"/>
        <path d="M49,38C49,35.24 51.24,33 54,33L64,33C66.76,33 69,35.24 69,38L69,49C69,51.76 66.76,54 64,54L54,54C51.24,54 49,51.76 49,49L49,38Z" style="fill:rgb(205,205,205);"/>
        <circle cx="64" cy="49" r="1" style="fill:rgb(118,118,118);"/>
    </g>
    <g id="head">
        <path d="M48,4C39.333,4 34.012,11.443 34,24C33.992,32.569 41.691,36.99 48,37C54.309,37.01 61.996,32.488 62,24C62.006,11.536 56.667,4 48,4Z" style="fill:rgb(118,118,118);"/>
        <path d="M40.5,12C36.913,12 34,14.913 34,18.5C34,20.009 34.515,21.4 35.38,22.503C34.49,24.022 34,25.717 34,27.5C34,33.707 40.16,39 48,39C55.84,39 62,33.707 62,27.5C62,25.717 61.51,24.022 60.62,22.503C61.485,21.399 62,20.009 62,18.5C62,14.913 59.087,12 55.5,12L40.5,12Z" style="fill:rgb(118,118,118);"/>
        <path d="M40.5,14L55.5,14C57.984,14 60,16.016 60,18.5C60,20.061 59.204,21.437 57.995,22.244C59.262,23.75 60,25.557 60,27.5C60,32.743 54.623,37 48,37C41.377,37 36,32.743 36,27.5C36,25.557 36.738,23.75 38.005,22.244C36.796,21.437 36,20.061 36,18.5C36,16.016 38.016,14 40.5,14Z" style="fill:rgb(205,205,205);"/>
        <path id="eye-left" serif:id="eye left" d="M39,18C39,17.448 39.448,17 40,17L44,17C44.548,17 44.993,17.441 45,17.987L45,18C45,19.656 43.656,21 42,21C40.344,21 39,19.656 39,18Z"/>
        <path id="eye-right" serif:id="eye right" d="M51,18C51,17.448 51.448,17 52,17L56,17C56.548,17 56.993,17.441 57,17.987L57,18C57,19.656 55.656,21 54,21C52.344,21 51,19.656 51,18Z"/>
        <path id="mouth" d="M40,32C39.448,32 39,31.552 39,31C39,29.344 40.344,28 42,28L54,28C55.656,28 57,29.344 57,31C57,31.552 56.552,32 56,32L40,32Z"/>
        <circle id="nostril-left" serif:id="nostril left" cx="45.5" cy="24.5" r="1.5"/>
        <circle id="nostril-right" serif:id="nostril right" cx="50.5" cy="24.5" r="1.5"/>
    </g>
</svg>
