<?xml version="1.0" encoding="UTF-8" standalone="no"?>
<!DOCTYPE svg PUBLIC "-//W3C//DTD SVG 1.1//EN" "http://www.w3.org/Graphics/SVG/1.1/DTD/svg11.dtd">
<svg width="96px" height="96px" version="1.1" xmlns="http://www.w3.org/2000/svg" xmlns:xlink="http://www.w3.org/1999/xlink" xml:space="preserve" xmlns:serif="http://www.serif.com/" style="fill-rule:evenodd;clip-rule:evenodd;stroke-linejoin:round;stroke-miterlimit:2;">
    <g id="outline">
        <path d="M69,40L69,49C69,51.76 66.76,54 64,54L63,54L63,63L71.731,71.731C74.255,73.939 76,75.517 76,78.5C76,79.991 75.564,81.38 74.813,82.548L72,87L81.75,87C82.992,87 84,88.008 84,89.25L84,96L60,96L60,89.25C60,88.093 60.876,87.138 62,87.014L62,79.972L51,69L45,69L34,79.972L34,87.014C35.124,87.138 36,88.093 36,89.25L36,96L12,96L12,89.25C12,88.008 13.008,87 14.25,87L24,87L21.187,82.548C20.436,81.38 20,79.991 20,78.5C20,75.517 21.745,73.939 24.269,71.731L33,63L33,54L32,54C29.24,54 27,51.76 27,49L27,40L69,40Z"/>
        <path d="M29,57.485L29,61.343C29,61.343 21.534,68.809 21.534,68.809C18.036,71.881 16,74.333 16,78.5C16,80.097 16.327,81.618 16.917,83L14.25,83C10.801,83 8,85.801 8,89.25L8,96C8,98.209 9.791,100 12,100L36,100C38.209,100 40,98.209 40,96L40,89.25C40,87.441 39.23,85.812 38,84.67C38,84.671 38,81.632 38,81.632C38,81.632 46.654,73 46.654,73C46.654,73 49.346,73 49.346,73C49.346,73 58,81.632 58,81.632C58,81.632 58,84.671 58,84.671C56.77,85.812 56,87.441 56,89.25L56,96C56,98.209 57.791,100 60,100L84,100C86.209,100 88,98.209 88,96L88,89.25C88,85.801 85.199,83 81.75,83L79.083,83C79.673,81.618 80,80.097 80,78.5C80,74.331 77.962,71.879 74.46,68.804C74.466,68.809 67,61.343 67,61.343L67,57.485C70.495,56.25 73,52.915 73,49L73,40C73,37.791 71.209,36 69,36L27,36C24.791,36 23,37.791 23,40L23,49C23,52.915 25.505,56.25 29,57.485ZM69,40L69,49C69,51.76 66.76,54 64,54L63,54L63,63L71.731,71.731C74.255,73.939 76,75.517 76,78.5C76,79.991 75.564,81.38 74.813,82.548L72,87L81.75,87C82.992,87 84,88.008 84,89.25L84,96L60,96L60,89.25C60,88.093 60.876,87.138 62,87.014L62,79.972L51,69L45,69L34,79.972L34,87.014C35.124,87.138 36,88.093 36,89.25L36,96L12,96L12,89.25C12,88.008 13.008,87 14.25,87L24,87L21.187,82.548C20.436,81.38 20,79.991 20,78.5C20,75.517 21.745,73.939 24.269,71.731L33,63L33,54L32,54C29.24,54 27,51.76 27,49L27,40L69,40Z"/>
    </g>
    <g id="outline1" serif:id="outline">
        <path d="M69,43.205L27,43.205C20.375,44.361 16,50.281 16,57.4L16,63.974C16.014,62.882 16.905,62 18,62C19.104,62 20,62.896 20,64L20,72C20,73.104 19.104,74 18,74L10,74C6.689,74 4,71.311 4,68L4,51.841C4,36.475 16.475,24 31.841,24L34,24C34.001,22.629 34.066,21.319 34.191,20.071C34.066,19.568 34,19.042 34,18.5C34,17.092 34.449,15.788 35.211,14.723C37.247,7.865 41.755,4 48,4C54.23,4 58.74,7.894 60.782,14.713C61.549,15.78 62,17.088 62,18.5C62,19.039 61.934,19.564 61.81,20.065C61.937,21.315 62.001,22.628 62,24L64.159,24C79.525,24 92,36.475 92,51.841L92,68C92,71.311 89.311,74 86,74L78,74C76.896,74 76,73.104 76,72L76,64C76,62.896 76.896,62 78,62C79.095,62 79.986,62.882 80,63.974L80,64L80,57.4C80,50.281 75.625,44.361 69,43.205Z"/>
        <path d="M30.116,20.047C13.344,20.942 0,34.846 0,51.841L0,68C0,73.519 4.481,78 10,78L18,78C21.311,78 24,75.311 24,72L24,64C24,61.39 22.33,59.167 20,58.343L20,57.4C20,52.432 22.83,48.164 27.376,47.205C27.378,47.205 68.622,47.205 68.622,47.205L68.625,47.205C73.17,48.164 76,52.432 76,57.4L76,58.343C73.67,59.167 72,61.39 72,64C72,64 72,72 72,72C72,75.311 74.689,78 78,78L86,78C91.519,78 96,73.519 96,68L96,51.841C96,34.846 82.656,20.942 65.883,20.047C65.961,19.544 66,19.027 66,18.5C66,16.475 65.425,14.583 64.431,12.978C61.72,4.583 55.833,0 48,0C40.146,0 34.263,4.553 31.557,13C30.571,14.597 30,16.482 30,18.5C30,19.026 30.039,19.542 30.116,20.047ZM69,43.205L27,43.205C20.375,44.361 16,50.281 16,57.4L16,63.974C16.014,62.882 16.905,62 18,62C19.104,62 20,62.896 20,64L20,72C20,73.104 19.104,74 18,74L10,74C6.689,74 4,71.311 4,68L4,51.841C4,36.475 16.475,24 31.841,24L34,24C34.001,22.629 34.066,21.319 34.191,20.071C34.066,19.568 34,19.042 34,18.5C34,17.092 34.449,15.788 35.211,14.723C37.247,7.865 41.755,4 48,4C54.23,4 58.74,7.894 60.782,14.713C61.549,15.78 62,17.088 62,18.5C62,19.039 61.934,19.564 61.81,20.065C61.937,21.315 62.001,22.628 62,24L64.159,24C79.525,24 92,36.475 92,51.841L92,68C92,71.311 89.311,74 86,74L78,74C76.896,74 76,73.104 76,72L76,64C76,62.896 76.896,62 78,62C79.095,62 79.986,62.882 80,63.974L80,64L80,57.4C80,50.281 75.625,44.361 69,43.205Z"/>
    </g>
    <g id="gorilla">
        <g id="arm">
            <path d="M16,63.974C16.014,62.882 16.905,62 18,62C19.104,62 20,62.896 20,64L20,72C20,73.104 19.104,74 18,74L10,74C6.689,74 4,71.311 4,68L4,64L16,64L16,63.974Z" style="fill:rgb(205,205,205);"/>
            <path d="M48,24L48,43L29.4,43C21.452,43 16,49.452 16,57.4L16,65C16,65.552 15.552,66 15,66C14.448,66 14,65.552 14,65L14,64L4,64L4,51.841C4,36.475 16.475,24 31.841,24L48,24Z" style="fill:rgb(118,118,118);"/>
        </g>
        <g id="arm1" serif:id="arm">
            <path d="M80,63.974C79.986,62.882 79.095,62 78,62C76.896,62 76,62.896 76,64L76,72C76,73.104 76.896,74 78,74L86,74C89.311,74 92,71.311 92,68L92,64L80,64L80,63.974Z" style="fill:rgb(205,205,205);"/>
            <path d="M48,24L48,43L66.6,43C74.548,43 80,49.452 80,57.4L80,65C80,65.552 80.448,66 81,66C81.552,66 82,65.552 82,65L82,64L92,64L92,51.841C92,36.475 79.525,24 64.159,24L48,24Z" style="fill:rgb(118,118,118);"/>
        </g>
        <g id="leg">
            <path d="M24.269,71.731L33,63L45,69L34,79.972L34,88L24,87L21.187,82.548L21.187,82.548C20.436,81.38 20,79.991 20,78.5C20,75.517 21.745,73.939 24.269,71.731Z" style="fill:rgb(118,118,118);"/>
            <path d="M36,96L36,89.25C36,88.008 34.992,87 33.75,87L14.25,87C13.008,87 12,88.008 12,89.25L12,96L36,96Z" style="fill:rgb(205,205,205);"/>
        </g>
        <g id="leg1" serif:id="leg">
            <path d="M71.731,71.731L63,63L51,69L62,79.972L62,88L72,87L74.813,82.548L74.813,82.548C75.564,81.38 76,79.991 76,78.5C76,75.517 74.255,73.939 71.731,71.731Z" style="fill:rgb(118,118,118);"/>
            <path d="M60,96L60,89.25C60,88.008 61.008,87 62.25,87L81.75,87C82.992,87 84,88.008 84,89.25L84,96L60,96Z" style="fill:rgb(205,205,205);"/>
        </g>
        <g id="belly">
            <path d="M63,53.25C63,50.352 60.648,48 57.75,48L38.25,48C35.352,48 33,50.352 33,53.25L33,63.75C33,66.648 35.352,69 38.25,69L57.75,69C60.648,69 63,66.648 63,63.75L63,53.25Z" style="fill:rgb(205,205,205);"/>
            <path d="M50,64C50,63.448 49.552,63 49,63L47,63C46.448,63 46,63.448 46,64C46,64.552 46.448,65 47,65L49,65C49.552,65 50,64.552 50,64Z" style="fill:rgb(118,118,118);"/>
        </g>
        <g id="chest">
            <path d="M33,31L33,56L42,56C45.863,56 49,52.863 49,49C49,49 49,38 49,38C49,34.137 45.863,31 42,31L33,31Z" style="fill:rgb(118,118,118);"/>
            <path d="M47,38C47,35.24 44.76,33 42,33L32,33C29.24,33 27,35.24 27,38L27,49C27,51.76 29.24,54 32,54L42,54C44.76,54 47,51.76 47,49L47,38Z" style="fill:rgb(205,205,205);"/>
            <circle cx="32" cy="49" r="1" style="fill:rgb(118,118,118);"/>
        </g>
        <g id="chest1" serif:id="chest">
            <path d="M63,31L63,56L54,56C50.137,56 47,52.863 47,49C47,49 47,38 47,38C47,34.137 50.137,31 54,31L63,31Z" style="fill:rgb(118,118,118);"/>
            <path d="M49,38C49,35.24 51.24,33 54,33L64,33C66.76,33 69,35.24 69,38L69,49C69,51.76 66.76,54 64,54L54,54C51.24,54 49,51.76 49,49L49,38Z" style="fill:rgb(205,205,205);"/>
            <circle cx="64" cy="49" r="1" style="fill:rgb(118,118,118);"/>
        </g>
        <g id="head">
            <path d="M48,4C39.333,4 34.012,11.443 34,24C33.992,32.569 41.691,36.99 48,37C54.309,37.01 61.996,32.488 62,24C62.006,11.536 56.667,4 48,4Z" style="fill:rgb(118,118,118);"/>
            <path d="M40.5,12C36.913,12 34,14.913 34,18.5C34,20.009 34.515,21.4 35.38,22.503C34.49,24.022 34,25.717 34,27.5C34,33.707 40.16,39 48,39C55.84,39 62,33.707 62,27.5C62,25.717 61.51,24.022 60.62,22.503C61.485,21.399 62,20.009 62,18.5C62,14.913 59.087,12 55.5,12L40.5,12Z" style="fill:rgb(118,118,118);"/>
            <path d="M40.5,14L55.5,14C57.984,14 60,16.016 60,18.5C60,20.061 59.204,21.437 57.995,22.244C59.262,23.75 60,25.557 60,27.5C60,32.743 54.623,37 48,37C41.377,37 36,32.743 36,27.5C36,25.557 36.738,23.75 38.005,22.244C36.796,21.437 36,20.061 36,18.5C36,16.016 38.016,14 40.5,14Z" style="fill:rgb(205,205,205);"/>
            <path id="eye-left" serif:id="eye left" d="M39,18C39,17.448 39.448,17 40,17L44,17C44.548,17 44.993,17.441 45,17.987L45,18C45,19.656 43.656,21 42,21C40.344,21 39,19.656 39,18Z"/>
            <path id="eye-right" serif:id="eye right" d="M51,18C51,17.448 51.448,17 52,17L56,17C56.548,17 56.993,17.441 57,17.987L57,18C57,19.656 55.656,21 54,21C52.344,21 51,19.656 51,18Z"/>
            <path id="mouth" d="M40,32C39.448,32 39,31.552 39,31C39,29.344 40.344,28 42,28L54,28C55.656,28 57,29.344 57,31C57,31.552 56.552,32 56,32L40,32Z"/>
            <circle id="nostril-left" serif:id="nostril left" cx="45.5" cy="24.5" r="1.5"/>
            <circle id="nostril-right" serif:id="nostril right" cx="50.5" cy="24.5" r="1.5"/>
        </g>
    </g>
</svg>
