<?xml version="1.0" encoding="UTF-8" standalone="no"?>
<!DOCTYPE svg PUBLIC "-//W3C//DTD SVG 1.1//EN" "http://www.w3.org/Graphics/SVG/1.1/DTD/svg11.dtd">
<svg width="100%" height="100%" viewBox="0 0 96 96" version="1.1" xmlns="http://www.w3.org/2000/svg" xmlns:xlink="http://www.w3.org/1999/xlink" xml:space="preserve" xmlns:serif="http://www.serif.com/" style="fill-rule:evenodd;clip-rule:evenodd;stroke-linejoin:round;stroke-miterlimit:2;">
    <path d="M48,4L56.313,16.974L70,9.895L70.712,25.288L86.105,26L79.026,39.687L92,48L79.026,56.313L86.105,70L70.712,70.712L70,86.105L56.313,79.026L48,92L39.687,79.026L26,86.105L25.288,70.712L9.895,70L16.974,56.313L4,48L16.974,39.687L9.895,26L25.288,25.288L26,9.895L39.687,16.974L48,4Z" style="fill:rgb(255,186,0);"/>
    <path d="M51.368,1.842C50.633,0.694 49.363,0 48,-0C46.637,-0 45.367,0.694 44.632,1.842L38.286,11.746C38.286,11.746 27.838,6.342 27.838,6.342C26.627,5.716 25.181,5.749 24,6.431C22.819,7.112 22.067,8.348 22.004,9.71L21.461,21.461C21.461,21.461 9.71,22.004 9.71,22.004C8.348,22.067 7.112,22.819 6.431,24C5.749,25.181 5.716,26.627 6.342,27.838L11.746,38.286C11.746,38.286 1.842,44.632 1.842,44.632C0.694,45.367 -0,46.637 -0,48C0,49.363 0.694,50.633 1.842,51.368L11.746,57.714C11.746,57.714 6.342,68.162 6.342,68.162C5.716,69.373 5.749,70.819 6.431,72C7.112,73.181 8.348,73.933 9.71,73.996L21.461,74.539C21.461,74.539 22.004,86.29 22.004,86.29C22.067,87.652 22.819,88.888 24,89.569C25.181,90.251 26.627,90.284 27.838,89.658L38.286,84.254C38.286,84.254 44.632,94.158 44.632,94.158C45.367,95.306 46.637,96 48,96C49.363,96 50.633,95.306 51.368,94.158L57.714,84.254C57.714,84.254 68.162,89.658 68.162,89.658C69.373,90.284 70.819,90.251 72,89.569C73.181,88.888 73.933,87.652 73.996,86.29L74.539,74.539C74.539,74.539 86.29,73.996 86.29,73.996C87.652,73.933 88.888,73.181 89.569,72C90.251,70.819 90.284,69.373 89.658,68.162L84.254,57.714C84.254,57.714 94.158,51.368 94.158,51.368C95.306,50.633 96,49.363 96,48C96,46.637 95.306,45.367 94.158,44.632L84.254,38.286C84.254,38.286 89.658,27.838 89.658,27.838C90.284,26.627 90.251,25.181 89.569,24C88.888,22.819 87.652,22.067 86.29,22.004L74.539,21.461C74.539,21.461 73.996,9.71 73.996,9.71C73.933,8.348 73.181,7.112 72,6.431C70.819,5.749 69.373,5.716 68.162,6.342L57.714,11.746C57.714,11.746 51.368,1.842 51.368,1.842ZM48,4L56.313,16.974L70,9.895L70.712,25.288L86.105,26L79.026,39.687L92,48L79.026,56.313L86.105,70L70.712,70.712L70,86.105L56.313,79.026L48,92L39.687,79.026L26,86.105L25.288,70.712L9.895,70L16.974,56.313L4,48L16.974,39.687L9.895,26L25.288,25.288L26,9.895L39.687,16.974L48,4Z"/>
    <circle cx="48" cy="48" r="32" style="fill:rgb(255,225,0);"/>
    <path id="Mouth" d="M64,56.104C63.944,64.886 56.796,72 48,72C39.17,72 32,64.83 32,56L64,56L64,56.104Z"/>
    <path id="Tongue" d="M42.038,68.668C43.504,67.032 45.632,66 48,66C50.368,66 52.496,67.032 53.962,68.668C52.154,69.522 50.132,70 48,70C45.868,70 43.846,69.522 42.038,68.668Z" style="fill:rgb(255,0,16);"/>
    <path id="Teeth" d="M61.856,58C61.654,59.412 61.242,60.756 60.65,62L35.35,62C34.758,60.756 34.344,59.412 34.142,58L61.856,58Z" style="fill:white;"/>
    <circle cx="34" cy="42" r="10" style="fill:white;"/>
    <circle cx="62" cy="42" r="10" style="fill:white;"/>
    <circle cx="62" cy="42" r="5"/>
    <circle cx="34" cy="42" r="5"/>
</svg>
